<svg width="33" height="33" viewBox="0 0 33 33" fill="none" xmlns="http://www.w3.org/2000/svg">
<rect x="0.665527" y="0.180054" width="32" height="32" rx="16" fill="#E5780B" fill-opacity="0.25"/>
<g clip-path="url(#clip0_9_15582)">
<path d="M16.6655 23.6798V25.3465" stroke="#E5780B" stroke-width="1.5" stroke-linecap="round" stroke-linejoin="round"/>
<path d="M21.9656 21.4801L23.1489 22.6634" stroke="#E5780B" stroke-width="1.5" stroke-linecap="round" stroke-linejoin="round"/>
<path d="M10.1826 22.6634L11.366 21.4801" stroke="#E5780B" stroke-width="1.5" stroke-linecap="round" stroke-linejoin="round"/>
<path d="M24.1653 16.1801H25.832" stroke="#E5780B" stroke-width="1.5" stroke-linecap="round" stroke-linejoin="round"/>
<path d="M7.49902 16.1801H9.16569" stroke="#E5780B" stroke-width="1.5" stroke-linecap="round" stroke-linejoin="round"/>
<path d="M16.6652 20.3464C18.9664 20.3464 20.8319 18.4809 20.8319 16.1797C20.8319 13.8785 18.9664 12.0131 16.6652 12.0131C14.364 12.0131 12.4985 13.8785 12.4985 16.1797C12.4985 18.4809 14.364 20.3464 16.6652 20.3464Z" stroke="#E5780B" stroke-width="1.5" stroke-linecap="round" stroke-linejoin="round"/>
<path d="M21.9656 10.8805L23.1489 9.69714" stroke="#E5780B" stroke-width="1.5" stroke-linecap="round" stroke-linejoin="round"/>
<path d="M10.1826 9.69714L11.366 10.8805" stroke="#E5780B" stroke-width="1.5" stroke-linecap="round" stroke-linejoin="round"/>
<path d="M16.6655 7.01343V8.68009" stroke="#E5780B" stroke-width="1.5" stroke-linecap="round" stroke-linejoin="round"/>
</g>
<defs>
<clipPath id="clip0_9_15582">
<rect width="20" height="20" fill="white" transform="translate(6.66553 6.18005)"/>
</clipPath>
</defs>
</svg>
