<svg width="17" height="17" viewBox="0 0 17 17" fill="none" xmlns="http://www.w3.org/2000/svg">
<g clip-path="url(#clip0_9_15598)">
<path d="M2.66553 4.18005C3.7701 4.18005 4.66553 3.28462 4.66553 2.18005C4.66553 1.07548 3.7701 0.180054 2.66553 0.180054C1.56096 0.180054 0.665527 1.07548 0.665527 2.18005C0.665527 3.28462 1.56096 4.18005 2.66553 4.18005Z" fill="#525B75"/>
<path d="M2.66553 10.1801C3.7701 10.1801 4.66553 9.28462 4.66553 8.18005C4.66553 7.07548 3.7701 6.18005 2.66553 6.18005C1.56096 6.18005 0.665527 7.07548 0.665527 8.18005C0.665527 9.28462 1.56096 10.1801 2.66553 10.1801Z" fill="#525B75"/>
<path d="M2.66553 16.1801C3.7701 16.1801 4.66553 15.2846 4.66553 14.1801C4.66553 13.0755 3.7701 12.1801 2.66553 12.1801C1.56096 12.1801 0.665527 13.0755 0.665527 14.1801C0.665527 15.2846 1.56096 16.1801 2.66553 16.1801Z" fill="#525B75"/>
<path d="M8.66553 10.1801C9.7701 10.1801 10.6655 9.28462 10.6655 8.18005C10.6655 7.07548 9.7701 6.18005 8.66553 6.18005C7.56096 6.18005 6.66553 7.07548 6.66553 8.18005C6.66553 9.28462 7.56096 10.1801 8.66553 10.1801Z" fill="#525B75"/>
<path d="M8.66553 16.1801C9.7701 16.1801 10.6655 15.2846 10.6655 14.1801C10.6655 13.0755 9.7701 12.1801 8.66553 12.1801C7.56096 12.1801 6.66553 13.0755 6.66553 14.1801C6.66553 15.2846 7.56096 16.1801 8.66553 16.1801Z" fill="#525B75"/>
<path d="M14.6655 10.1801C15.7701 10.1801 16.6655 9.28462 16.6655 8.18005C16.6655 7.07548 15.7701 6.18005 14.6655 6.18005C13.561 6.18005 12.6655 7.07548 12.6655 8.18005C12.6655 9.28462 13.561 10.1801 14.6655 10.1801Z" fill="#525B75"/>
<path d="M14.6655 16.1801C15.7701 16.1801 16.6655 15.2846 16.6655 14.1801C16.6655 13.0755 15.7701 12.1801 14.6655 12.1801C13.561 12.1801 12.6655 13.0755 12.6655 14.1801C12.6655 15.2846 13.561 16.1801 14.6655 16.1801Z" fill="#525B75"/>
<path d="M8.66553 4.18005C9.7701 4.18005 10.6655 3.28462 10.6655 2.18005C10.6655 1.07548 9.7701 0.180054 8.66553 0.180054C7.56096 0.180054 6.66553 1.07548 6.66553 2.18005C6.66553 3.28462 7.56096 4.18005 8.66553 4.18005Z" fill="#525B75"/>
<path d="M14.6655 4.18005C15.7701 4.18005 16.6655 3.28462 16.6655 2.18005C16.6655 1.07548 15.7701 0.180054 14.6655 0.180054C13.561 0.180054 12.6655 1.07548 12.6655 2.18005C12.6655 3.28462 13.561 4.18005 14.6655 4.18005Z" fill="#525B75"/>
</g>
<defs>
<clipPath id="clip0_9_15598">
<rect width="16" height="16" fill="white" transform="translate(0.665527 0.180054)"/>
</clipPath>
</defs>
</svg>
