<svg width="43" height="43" viewBox="0 0 43 43" fill="none" xmlns="http://www.w3.org/2000/svg">
<path d="M42.2906 24.3054C42.2906 24.3154 42.2881 24.3254 42.2856 24.3354C42.0006 26.2729 41.4481 28.1229 40.6731 29.8529C40.6806 29.6129 40.6881 29.3679 40.6881 29.1254C40.6881 18.4604 32.0106 9.78286 21.3456 9.78286C19.9056 9.78286 18.4806 9.94286 17.0956 10.2529C16.7256 9.77286 16.1456 9.46286 15.4931 9.46286C14.3556 9.46286 13.4331 10.4054 13.4681 11.5504C13.4981 12.5679 14.3156 13.4304 15.3306 13.5104C16.4031 13.5954 17.3206 12.8354 17.4906 11.8279C18.7481 11.5479 20.0406 11.4054 21.3481 11.4054C31.1206 11.4054 39.0706 19.3554 39.0706 29.1279C39.0706 29.1429 39.0706 29.1579 39.0706 29.1729C39.0631 32.0279 37.8506 34.7629 35.7581 36.7054C34.1806 38.1704 32.3806 39.3979 30.4131 40.3304C30.7181 40.0454 31.0181 39.7529 31.3081 39.4404C33.9081 36.6179 35.4006 32.8579 35.4006 29.1254C35.4006 21.3779 29.0981 15.0779 21.3531 15.0779C19.6856 15.0779 18.0281 15.3779 16.4731 15.9504C16.1131 15.6229 15.6356 15.4204 15.1106 15.4204C13.9756 15.4204 13.0531 16.3604 13.0856 17.5054C13.1156 18.5629 13.9956 19.4454 15.0556 19.4754C16.2006 19.5079 17.1406 18.5854 17.1406 17.4504V17.4354C18.4856 16.9504 19.9156 16.7004 21.3556 16.7004C28.2081 16.7004 33.7831 22.2754 33.7831 29.1254C33.7831 36.1729 27.9806 42.3579 21.3631 42.3604H21.3581C11.7331 42.3604 3.60809 35.9379 1.03309 27.1454C5.47559 33.6204 12.9281 37.8754 21.3581 37.8754C22.0956 37.8754 22.8331 37.8379 23.5681 37.7729C23.9756 38.4604 24.7781 38.8854 25.6631 38.7329C26.4781 38.5929 27.1406 37.9454 27.2956 37.1354C27.5431 35.8454 26.5531 34.7104 25.3081 34.7104C24.3906 34.7104 23.6106 35.3254 23.3631 36.1654C22.6981 36.2229 22.0281 36.2529 21.3581 36.2529C13.5231 36.2529 6.58808 32.3154 2.43058 26.3154C2.42558 26.3054 2.41809 26.2979 2.41309 26.2879C0.810586 23.8579 0.0680859 20.9429 0.420586 18.0054C0.420586 17.9979 0.420586 17.9879 0.423086 17.9779C0.713086 16.0579 1.26309 14.2229 2.03309 12.5104C2.02559 12.7529 2.01809 12.9954 2.01809 13.2404C2.01809 23.9029 10.6956 32.5804 21.3581 32.5804C22.8006 32.5804 24.2231 32.4229 25.6106 32.1104C26.0381 32.6654 26.7456 32.9929 27.5181 32.8779C28.4131 32.7454 29.1256 32.0079 29.2256 31.1079C29.3631 29.8879 28.4081 28.8454 27.2131 28.8454C26.2106 28.8454 25.3781 29.5779 25.2181 30.5329C23.8981 30.8254 22.5481 30.9704 21.1756 30.9554C11.7956 30.8604 4.03808 23.3479 3.65308 13.9754C3.64558 13.7629 3.64058 13.5529 3.63808 13.3429C3.62058 10.3404 4.92309 7.49036 7.14809 5.47536C8.67809 4.09036 10.4106 2.92536 12.2981 2.03036C11.9931 2.31286 11.6931 2.60536 11.4031 2.92036C8.80308 5.74036 7.31059 9.50037 7.31059 13.2354C7.31059 20.9804 13.6131 27.2829 21.3581 27.2829C23.0256 27.2829 24.6831 26.9829 26.2381 26.4079C26.6906 26.8229 27.3356 27.0379 28.0206 26.8954C28.8256 26.7279 29.4631 26.0679 29.5981 25.2579C29.8081 23.9879 28.8306 22.8854 27.6006 22.8854C26.4831 22.8854 25.5731 23.7929 25.5731 24.9129C25.5731 24.9179 25.5756 24.9204 25.5756 24.9279C24.2306 25.4104 22.7981 25.6629 21.3606 25.6629C14.5106 25.6629 8.93559 20.0879 8.93559 13.2379C8.93559 9.71036 10.3881 6.40286 12.6656 3.97536C14.9431 1.54786 18.0506 0.00286621 21.3606 0.000366211C30.9856 0.000366211 39.1106 6.42286 41.6856 15.2154C37.2431 8.74036 29.7906 4.48537 21.3606 4.48537C20.6256 4.48537 19.8881 4.52286 19.1531 4.58786C18.7381 3.89786 17.9281 3.46786 17.0381 3.63036C16.2256 3.77786 15.5706 4.43037 15.4206 5.24287C15.1856 6.52537 16.1706 7.65036 17.4131 7.65036C18.3306 7.65036 19.1081 7.03536 19.3581 6.19786C20.0231 6.13786 20.6906 6.10786 21.3606 6.10786C29.1981 6.10786 36.1331 10.0454 40.2906 16.0479C40.2931 16.0529 40.2956 16.0529 40.2981 16.0579C41.8806 18.4754 42.6281 21.3779 42.2906 24.3054Z" fill="#5C4099"/>
</svg>
