<svg width="21" height="21" viewBox="0 0 21 21" fill="none" xmlns="http://www.w3.org/2000/svg">
<path d="M15.6655 6.84668C15.6655 5.5206 15.1387 4.24883 14.2011 3.31115C13.2634 2.37346 11.9916 1.84668 10.6655 1.84668C9.33944 1.84668 8.06768 2.37346 7.12999 3.31115C6.19231 4.24883 5.66553 5.5206 5.66553 6.84668C5.66553 12.68 3.16553 14.3467 3.16553 14.3467H18.1655C18.1655 14.3467 15.6655 12.68 15.6655 6.84668Z" stroke="#525B75" stroke-width="1.33" stroke-linecap="round" stroke-linejoin="round"/>
<path d="M12.1072 17.6801C11.9607 17.9326 11.7504 18.1423 11.4974 18.288C11.2444 18.4337 10.9575 18.5104 10.6655 18.5104C10.3736 18.5104 10.0867 18.4337 9.83369 18.288C9.58067 18.1423 9.37039 17.9326 9.22388 17.6801" stroke="#525B75" stroke-width="1.33" stroke-linecap="round" stroke-linejoin="round"/>
</svg>
