<svg width="15" height="14" viewBox="0 0 15 14" fill="none" xmlns="http://www.w3.org/2000/svg">
<path d="M13.7655 12.0801C14.1405 12.4801 14.1405 13.1051 13.7655 13.5051C13.3655 13.8801 12.7405 13.8801 12.3405 13.5051L9.36553 10.5051C8.34053 11.1801 7.09053 11.5301 5.74053 11.3551C3.44053 11.0301 1.59053 9.15505 1.29053 6.88005C0.865527 3.48005 3.74053 0.605054 7.14053 1.03005C9.41553 1.33005 11.2905 3.18005 11.6155 5.48005C11.7905 6.83005 11.4405 8.08005 10.7655 9.08005L13.7655 12.0801ZM3.24053 6.18005C3.24053 7.95505 4.66553 9.38005 6.44053 9.38005C8.19053 9.38005 9.64053 7.95505 9.64053 6.18005C9.64053 4.43005 8.19053 2.98005 6.44053 2.98005C4.66553 2.98005 3.24053 4.43005 3.24053 6.18005Z" fill="#8A94AD"/>
</svg>
