<svg width="16" height="17" viewBox="0 0 16 17" fill="none" xmlns="http://www.w3.org/2000/svg">
<path d="M13.3333 5.02661H2.66659C1.93021 5.02661 1.33325 5.62357 1.33325 6.35994V13.0266C1.33325 13.763 1.93021 14.3599 2.66659 14.3599H13.3333C14.0696 14.3599 14.6666 13.763 14.6666 13.0266V6.35994C14.6666 5.62357 14.0696 5.02661 13.3333 5.02661Z" stroke="#525B75" stroke-width="1.33" stroke-linecap="round" stroke-linejoin="round"/>
<path d="M10.6666 14.36V3.69332C10.6666 3.3397 10.5261 3.00056 10.2761 2.75051C10.026 2.50046 9.68687 2.35999 9.33325 2.35999H6.66659C6.31296 2.35999 5.97382 2.50046 5.72378 2.75051C5.47373 3.00056 5.33325 3.3397 5.33325 3.69332V14.36" stroke="#525B75" stroke-width="1.33" stroke-linecap="round" stroke-linejoin="round"/>
</svg>
