<svg width="14" height="12" viewBox="0 0 14 12" fill="none" xmlns="http://www.w3.org/2000/svg">
<path d="M12.9999 5.33333H5.27325L6.80659 3.80667C6.86874 3.74451 6.91805 3.67071 6.95169 3.5895C6.98533 3.50829 7.00265 3.42124 7.00265 3.33333C7.00265 3.24543 6.98533 3.15838 6.95169 3.07717C6.91805 2.99595 6.86874 2.92216 6.80659 2.86C6.74443 2.79784 6.67063 2.74853 6.58942 2.71489C6.5082 2.68125 6.42116 2.66394 6.33325 2.66394C6.24535 2.66394 6.1583 2.68125 6.07709 2.71489C5.99587 2.74853 5.92208 2.79784 5.85992 2.86L3.19325 5.52667C3.13256 5.59007 3.08498 5.66483 3.05325 5.74667C2.98657 5.90897 2.98657 6.09103 3.05325 6.25333C3.08498 6.33517 3.13256 6.40993 3.19325 6.47333L5.85992 9.14C5.92189 9.20249 5.99563 9.25208 6.07687 9.28593C6.15811 9.31977 6.24524 9.3372 6.33325 9.3372C6.42126 9.3372 6.5084 9.31977 6.58964 9.28593C6.67088 9.25208 6.74461 9.20249 6.80659 9.14C6.86907 9.07802 6.91867 9.00429 6.95251 8.92305C6.98636 8.84181 7.00378 8.75467 7.00378 8.66667C7.00378 8.57866 6.98636 8.49152 6.95251 8.41028C6.91867 8.32904 6.86907 8.25531 6.80659 8.19333L5.27325 6.66667H12.9999C13.1767 6.66667 13.3463 6.59643 13.4713 6.4714C13.5963 6.34638 13.6666 6.17681 13.6666 6C13.6666 5.82319 13.5963 5.65362 13.4713 5.5286C13.3463 5.40357 13.1767 5.33333 12.9999 5.33333ZM0.999919 0C0.823108 0 0.653538 0.0702379 0.528514 0.195262C0.40349 0.320286 0.333252 0.489856 0.333252 0.666667V11.3333C0.333252 11.5101 0.40349 11.6797 0.528514 11.8047C0.653538 11.9298 0.823108 12 0.999919 12C1.17673 12 1.3463 11.9298 1.47132 11.8047C1.59635 11.6797 1.66659 11.5101 1.66659 11.3333V0.666667C1.66659 0.489856 1.59635 0.320286 1.47132 0.195262C1.3463 0.0702379 1.17673 0 0.999919 0V0Z" fill="#525B75"/>
</svg>
