<svg width="16" height="17" viewBox="0 0 16 17" fill="none" xmlns="http://www.w3.org/2000/svg">
<path d="M10.6667 14.3599V13.0265C10.6667 12.3193 10.3858 11.641 9.8857 11.1409C9.3856 10.6408 8.70733 10.3599 8.00008 10.3599H3.33341C2.62617 10.3599 1.94789 10.6408 1.4478 11.1409C0.9477 11.641 0.666748 12.3193 0.666748 13.0265V14.3599" stroke="#525B75" stroke-width="1.33" stroke-linecap="round" stroke-linejoin="round"/>
<path d="M12 5.69312L15.3333 9.02645" stroke="#525B75" stroke-width="1.33" stroke-linecap="round" stroke-linejoin="round"/>
<path d="M15.3333 5.69312L12 9.02645" stroke="#525B75" stroke-width="1.33" stroke-linecap="round" stroke-linejoin="round"/>
<path d="M5.66667 7.6932C7.13943 7.6932 8.33333 6.49929 8.33333 5.02653C8.33333 3.55377 7.13943 2.35986 5.66667 2.35986C4.19391 2.35986 3 3.55377 3 5.02653C3 6.49929 4.19391 7.6932 5.66667 7.6932Z" stroke="#31374A" stroke-width="1.33" stroke-linecap="round" stroke-linejoin="round"/>
</svg>
