<svg width="16" height="17" viewBox="0 0 16 17" fill="none" xmlns="http://www.w3.org/2000/svg">
<path d="M7.99992 15.0267C11.6818 15.0267 14.6666 12.0419 14.6666 8.36002C14.6666 4.67813 11.6818 1.69336 7.99992 1.69336C4.31802 1.69336 1.33325 4.67813 1.33325 8.36002C1.33325 12.0419 4.31802 15.0267 7.99992 15.0267Z" stroke="#525B75" stroke-width="1.33" stroke-linecap="round" stroke-linejoin="round"/>
<path d="M8 12.36C10.2091 12.36 12 10.5691 12 8.35999C12 6.15085 10.2091 4.35999 8 4.35999C5.79086 4.35999 4 6.15085 4 8.35999C4 10.5691 5.79086 12.36 8 12.36Z" stroke="#525B75" stroke-width="1.33" stroke-linecap="round" stroke-linejoin="round"/>
<path d="M8.00008 9.69328C8.73646 9.69328 9.33341 9.09632 9.33341 8.35994C9.33341 7.62356 8.73646 7.02661 8.00008 7.02661C7.2637 7.02661 6.66675 7.62356 6.66675 8.35994C6.66675 9.09632 7.2637 9.69328 8.00008 9.69328Z" stroke="#31374A" stroke-width="1.33" stroke-linecap="round" stroke-linejoin="round"/>
</svg>
