<svg width="16" height="17" viewBox="0 0 16 17" fill="none" xmlns="http://www.w3.org/2000/svg">
<g clip-path="url(#clip0_9_15226)">
<path d="M8 1.02661V15.6933" stroke="#525B75" stroke-width="1.33" stroke-linecap="round" stroke-linejoin="round"/>
<path d="M11.3333 3.69336H6.33333C5.71449 3.69336 5.121 3.93919 4.68342 4.37678C4.24583 4.81436 4 5.40785 4 6.02669C4 6.64553 4.24583 7.23902 4.68342 7.67661C5.121 8.11419 5.71449 8.36003 6.33333 8.36003H9.66667C10.2855 8.36003 10.879 8.60586 11.3166 9.04344C11.7542 9.48103 12 10.0745 12 10.6934C12 11.3122 11.7542 11.9057 11.3166 12.3433C10.879 12.7809 10.2855 13.0267 9.66667 13.0267H4" stroke="#525B75" stroke-width="1.33" stroke-linecap="round" stroke-linejoin="round"/>
</g>
<defs>
<clipPath id="clip0_9_15226">
<rect width="16" height="16" fill="white" transform="translate(0 0.359985)"/>
</clipPath>
</defs>
</svg>
