<svg width="16" height="17" viewBox="0 0 16 17" fill="none" xmlns="http://www.w3.org/2000/svg">
<path d="M0.666748 13.6934V9.69336H4.66675" stroke="#525B75" stroke-width="1.33" stroke-linecap="round" stroke-linejoin="round"/>
<path d="M15.3333 3.02661V7.02661H11.3333" stroke="#525B75" stroke-width="1.33" stroke-linecap="round" stroke-linejoin="round"/>
<path d="M2.34008 6.35999C2.67819 5.40452 3.25284 4.55026 4.01039 3.87694C4.76795 3.20362 5.68373 2.73317 6.67227 2.5095C7.66082 2.28583 8.68992 2.31622 9.66354 2.59784C10.6372 2.87947 11.5236 3.40314 12.2401 4.11999L15.3334 7.02666M0.666748 9.69333L3.76008 12.6C4.47658 13.3169 5.363 13.8405 6.33662 14.1221C7.31025 14.4038 8.33934 14.4342 9.32789 14.2105C10.3164 13.9868 11.2322 13.5164 11.9898 12.843C12.7473 12.1697 13.322 11.3155 13.6601 10.36" stroke="#525B75" stroke-width="1.33" stroke-linecap="round" stroke-linejoin="round"/>
</svg>
