<svg width="16" height="17" viewBox="0 0 16 17" fill="none" xmlns="http://www.w3.org/2000/svg">
<path d="M6.86001 2.93333L1.21335 12.36C1.09693 12.5616 1.03533 12.7902 1.03467 13.023C1.03402 13.2558 1.09434 13.4848 1.20963 13.687C1.32492 13.8893 1.49116 14.0578 1.69182 14.1759C1.89247 14.294 2.12055 14.3574 2.35335 14.36H13.6467C13.8795 14.3574 14.1076 14.294 14.3082 14.1759C14.5089 14.0578 14.6751 13.8893 14.7904 13.687C14.9057 13.4848 14.966 13.2558 14.9654 13.023C14.9647 12.7902 14.9031 12.5616 14.7867 12.36L9.14001 2.93333C9.02117 2.7374 8.85383 2.57541 8.65414 2.46299C8.45446 2.35057 8.22917 2.2915 8.00001 2.2915C7.77086 2.2915 7.54557 2.35057 7.34588 2.46299C7.1462 2.57541 6.97886 2.7374 6.86001 2.93333V2.93333Z" stroke="#525B75" stroke-width="1.33" stroke-linecap="round" stroke-linejoin="round"/>
<path d="M8 6.35999V9.02665" stroke="#525B75" stroke-width="1.33" stroke-linecap="round" stroke-linejoin="round"/>
<path d="M8 11.6934H8.008" stroke="#525B75" stroke-width="1.33" stroke-linecap="round" stroke-linejoin="round"/>
</svg>
