<svg width="16" height="17" viewBox="0 0 16 17" fill="none" xmlns="http://www.w3.org/2000/svg">
<path d="M12 2.35999C11.4696 2.35999 10.9609 2.5707 10.5858 2.94577C10.2107 3.32084 10 3.82955 10 4.35999V12.36C10 12.8904 10.2107 13.3991 10.5858 13.7742C10.9609 14.1493 11.4696 14.36 12 14.36C12.5304 14.36 13.0391 14.1493 13.4142 13.7742C13.7893 13.3991 14 12.8904 14 12.36C14 11.8296 13.7893 11.3208 13.4142 10.9458C13.0391 10.5707 12.5304 10.36 12 10.36H4C3.46957 10.36 2.96086 10.5707 2.58579 10.9458C2.21071 11.3208 2 11.8296 2 12.36C2 12.8904 2.21071 13.3991 2.58579 13.7742C2.96086 14.1493 3.46957 14.36 4 14.36C4.53043 14.36 5.03914 14.1493 5.41421 13.7742C5.78929 13.3991 6 12.8904 6 12.36V4.35999C6 3.82955 5.78929 3.32084 5.41421 2.94577C5.03914 2.5707 4.53043 2.35999 4 2.35999C3.46957 2.35999 2.96086 2.5707 2.58579 2.94577C2.21071 3.32084 2 3.82955 2 4.35999C2 4.89042 2.21071 5.39913 2.58579 5.7742C2.96086 6.14927 3.46957 6.35999 4 6.35999H12C12.5304 6.35999 13.0391 6.14927 13.4142 5.7742C13.7893 5.39913 14 4.89042 14 4.35999C14 3.82955 13.7893 3.32084 13.4142 2.94577C13.0391 2.5707 12.5304 2.35999 12 2.35999Z" stroke="#525B75" stroke-width="1.33" stroke-linecap="round" stroke-linejoin="round"/>
</svg>
