<svg width="16" height="17" viewBox="0 0 16 17" fill="none" xmlns="http://www.w3.org/2000/svg">
<path d="M15.3333 14.3599V13.0265C15.3328 12.4357 15.1362 11.8617 14.7742 11.3947C14.4122 10.9278 13.9053 10.5942 13.3333 10.4465" stroke="#525B75" stroke-width="1.33" stroke-linecap="round" stroke-linejoin="round"/>
<path d="M11.3334 14.3599V13.0265C11.3334 12.3193 11.0525 11.641 10.5524 11.1409C10.0523 10.6408 9.37399 10.3599 8.66675 10.3599H3.33341C2.62617 10.3599 1.94789 10.6408 1.4478 11.1409C0.9477 11.641 0.666748 12.3193 0.666748 13.0265V14.3599" stroke="#525B75" stroke-width="1.33" stroke-linecap="round" stroke-linejoin="round"/>
<path d="M10.6667 2.44653C11.2404 2.5934 11.7488 2.927 12.1118 3.39474C12.4749 3.86248 12.672 4.43775 12.672 5.02987C12.672 5.62198 12.4749 6.19725 12.1118 6.66499C11.7488 7.13273 11.2404 7.46633 10.6667 7.6132" stroke="#525B75" stroke-width="1.33" stroke-linecap="round" stroke-linejoin="round"/>
<path d="M5.99992 7.6932C7.47268 7.6932 8.66658 6.49929 8.66658 5.02653C8.66658 3.55377 7.47268 2.35986 5.99992 2.35986C4.52716 2.35986 3.33325 3.55377 3.33325 5.02653C3.33325 6.49929 4.52716 7.6932 5.99992 7.6932Z" stroke="#525B75" stroke-width="1.33" stroke-linecap="round" stroke-linejoin="round"/>
</svg>
