<svg width="50" height="51" viewBox="0 0 50 51" fill="none" xmlns="http://www.w3.org/2000/svg">
<path d="M49.9059 29.2124C49.9059 29.2243 49.9035 29.2362 49.9011 29.2481C49.5619 31.5524 48.9061 33.7519 47.9825 35.8075C47.992 35.5206 47.9991 35.2314 47.9991 34.9422C47.9991 22.2614 37.6821 11.9432 25.0001 11.9432C23.2862 11.9432 21.5949 12.1336 19.9464 12.5026C19.5048 11.9313 18.8157 11.5623 18.0396 11.5623C16.6875 11.5623 15.5901 12.6823 15.6306 14.0451C15.6663 15.2556 16.6387 16.2792 17.8456 16.3744C19.1215 16.4756 20.2106 15.5734 20.413 14.3748C21.9091 14.0428 23.4445 13.8714 24.9989 13.8714C36.6181 13.8714 46.0697 23.3231 46.0697 34.9422C46.0697 34.96 46.0697 34.9791 46.0697 34.9969C46.0614 38.3927 44.6177 41.6432 42.1301 43.9535C40.2542 45.696 38.113 47.1552 35.7742 48.2645C36.1384 47.9277 36.4943 47.5777 36.8371 47.2064C39.9293 43.8511 41.7028 39.3806 41.7028 34.9422C41.7028 25.7309 34.2102 18.2407 24.9989 18.2407C23.016 18.2407 21.0462 18.5978 19.1977 19.2798C18.7692 18.8894 18.2027 18.6514 17.5778 18.6514C16.2269 18.6514 15.1307 19.7678 15.1688 21.1294C15.2033 22.3875 16.2519 23.4361 17.51 23.4706C18.8716 23.5087 19.988 22.4125 19.988 21.0616V21.0449C21.5877 20.4689 23.2874 20.1701 24.9989 20.1701C33.1473 20.1701 39.7746 26.7974 39.7746 34.9434C39.7746 43.3226 32.8748 50.6759 25.0061 50.6807H24.9989C13.5536 50.6807 3.89482 43.0453 0.833521 32.5914C6.1158 40.2887 14.9783 45.3496 24.9989 45.3496C25.8761 45.3496 26.7534 45.3068 27.6258 45.2294C28.1114 46.0471 29.0648 46.5506 30.117 46.372C31.0858 46.2066 31.8726 45.4377 32.0583 44.4712C32.3522 42.937 31.1763 41.5885 29.6932 41.5885C28.6018 41.5885 27.6758 42.3216 27.3818 43.3191C26.5915 43.3869 25.794 43.4226 24.9978 43.4226C15.6806 43.4226 7.43578 38.7402 2.49271 31.6059C2.48557 31.594 2.47843 31.5845 2.47129 31.5726C0.566909 28.6827 -0.317441 25.2179 0.102713 21.7258C0.102713 21.7162 0.102715 21.7043 0.105096 21.6948C0.450265 19.4131 1.10251 17.2314 2.019 15.1925C2.00948 15.4818 2.00234 15.7686 2.00234 16.0602C2.00234 28.7386 12.3193 39.0568 24.9989 39.0568C26.7153 39.0568 28.4042 38.8688 30.0551 38.4974C30.5645 39.1568 31.4036 39.546 32.3213 39.4103C33.3854 39.2532 34.2316 38.3748 34.353 37.306C34.5173 35.8539 33.3806 34.6172 31.9583 34.6172C30.768 34.6172 29.7778 35.4873 29.5873 36.6252C28.0186 36.9727 26.4129 37.1441 24.7811 37.1274C13.6274 37.0132 4.40424 28.084 3.94838 16.9386C3.93767 16.6875 3.93171 16.4363 3.93052 16.1864C3.9091 12.618 5.4576 9.22824 8.1035 6.83229C9.92218 5.185 11.9825 3.80075 14.2261 2.73668C13.8619 3.07114 13.506 3.42107 13.1632 3.7948C10.071 7.14651 8.29751 11.6171 8.29751 16.059C8.29751 25.2679 15.7901 32.7605 24.9989 32.7605C26.9819 32.7605 28.9541 32.4034 30.8025 31.719C31.3417 32.2118 32.1082 32.4677 32.9212 32.2986C33.8781 32.0999 34.6363 31.3155 34.7958 30.3514C35.0458 28.8398 33.8841 27.5305 32.4201 27.5305C31.0918 27.5305 30.0098 28.6101 30.0098 29.9408C30.0098 29.9455 30.0122 29.9503 30.0122 29.9574C28.4126 30.5311 26.7105 30.8323 24.9989 30.8323C16.8529 30.8323 10.2257 24.205 10.2257 16.059C10.2257 11.8658 11.9515 7.93207 14.6605 5.04574C17.3695 2.15941 21.064 0.321686 24.9989 0.319305C36.4443 0.319305 46.1031 7.95707 49.1667 18.4086C43.8845 10.7113 35.0219 5.65038 24.9989 5.65038C24.1241 5.65038 23.2469 5.69323 22.3745 5.7706C21.8829 4.94933 20.9188 4.43991 19.8607 4.63273C18.8942 4.80889 18.1158 5.58254 17.9384 6.54902C17.6575 8.0749 18.8299 9.41154 20.307 9.41154C21.3985 9.41154 22.3221 8.68073 22.6185 7.68331C23.4088 7.61309 24.2039 7.57738 24.9989 7.57738C34.3185 7.57738 42.5633 12.2598 47.5064 19.3965C47.5087 19.4012 47.5111 19.4036 47.5159 19.4084C49.4167 22.2804 50.3058 25.7321 49.9059 29.2124Z" fill="#5C4099"/>
</svg>
