<svg width="14" height="10" viewBox="0 0 14 10" fill="none" xmlns="http://www.w3.org/2000/svg">
<path d="M12.2 0.0806639C12.85 0.0806639 13.4 0.630664 13.4 1.28066C13.4 1.68066 13.2 2.03066 12.9 2.25566L7.475 6.33066C7.175 6.55566 6.8 6.55566 6.5 6.33066L1.075 2.25566C0.775 2.03066 0.6 1.68066 0.6 1.28066C0.6 0.630664 1.125 0.0806639 1.8 0.0806639H12.2ZM6.025 6.98066C6.6 7.40566 7.375 7.40566 7.95 6.98066L13.4 2.88066V8.08066C13.4 8.98066 12.675 9.68066 11.8 9.68066H2.2C1.3 9.68066 0.6 8.98066 0.6 8.08066V2.88066L6.025 6.98066Z" fill="#31374A"/>
</svg>
