<svg width="14" height="14" viewBox="0 0 14 14" fill="none" xmlns="http://www.w3.org/2000/svg">
<path d="M7.65 9.08066L6.8 9.90566C6.7 10.0307 6.55 10.0807 6.4 10.0807H5.4V11.0807C5.4 11.4307 5.125 11.6807 4.8 11.6807H3.8V12.6807C3.8 13.0307 3.525 13.2807 3.2 13.2807H1.2C0.85 13.2807 0.6 13.0307 0.6 12.6807V10.6807C0.6 10.5307 0.65 10.3807 0.775 10.2557L4.8 6.23066C4.65 5.80566 4.6 5.35566 4.6 4.88066C4.6 2.45566 6.55 0.480664 9 0.480664C11.425 0.480664 13.4 2.45566 13.4 4.88066C13.4 7.33066 11.425 9.28066 9 9.28066C8.525 9.28066 8.075 9.23066 7.65 9.08066ZM10 4.88066C10.55 4.88066 11 4.45566 11 3.88066C11 3.33066 10.55 2.88066 10 2.88066C9.425 2.88066 9 3.33066 9 3.88066C9 4.45566 9.425 4.88066 10 4.88066Z" fill="#31374A"/>
</svg>
